# xmcd
#
# Track frame offsets:
#	150
#	16477
#	30652
#	43670
#	56307
#	68222
#	88732
#	100052
#	112892
#	126582
#	142715
#	154977
#
# Disc length: 2316 seconds
#
# Revision: 0
# Processed by: cddbd v1.4PL0 Copyright (c) Steve Scherf et al.
# Submitted via: dBpowerAMP V4.0
#
DISCID=9a090a0c
DTITLE=Elvis Presley - The Country Songs
DYEAR=1900
DGENRE=Country
TTITLE0=Make The World Go Away
TTITLE1=Help Me Make It Through The Night
TTITLE2=You Asked Me To
TTITLE3=There Goes My Everything
TTITLE4=It Keeps Right On A-Hurtin'
TTITLE5=He'll Have To Go
TTITLE6=I Forgot To Remember To Foget
TTITLE7=Guitar Man
TTITLE8=If I Were You
TTITLE9=Green, Green Grass Of Home
TTITLE10=Your Cheatin' Heart
TTITLE11=Old Shep
EXTD=
EXTT0=
EXTT1=
EXTT2=
EXTT3=
EXTT4=
EXTT5=
EXTT6=
EXTT7=
EXTT8=
EXTT9=
EXTT10=
EXTT11=
PLAYORDER=
